<svg xmlns="http://www.w3.org/2000/svg" viewBox="0 0 270.561 59.8">
<path
fill="#fff"
d="M16 240l1.81-1.81v-8.72H9.53v3.67h4.63v3.18H4.99v-11.03h9.17v1.84h3.65v-3.65L16 221.61H3.13l-1.82 1.87v14.71L3.13 240zm8.11-3.68v-11.03h9.17v11.03zM35.12 240l1.81-1.81v-14.71l-1.81-1.87H22.25l-1.81 1.87v14.71l1.81 1.81zm8.11-3.68v-11.03h9.17v11.03zM54.24 240l1.81-1.81v-14.71l-1.81-1.87H41.37l-1.81 1.87v14.71l1.81 1.81zm20.93-12.87l-5.49-5.52h-11V240h14.68l1.81-1.81zm-3.65 9.19h-9.16v-11.03h5.49l3.67 3.68zm20.2 3.68v-12.4l4.91 7.07h3.08l4.8-7.07V240h3.68v-18.39h-3.54l-6.52 8.91-6.41-8.91h-3.67V240zm22.51-9.17v-1.84l3.65-3.7h5.52v5.54zm0 9.17v-5.49h9.17V240h3.65v-18.39h-11l-5.49 5.55V240zm30.13 0l1.81-1.81v-7.38l-1.81-1.84h-11.01v-3.68h9.17v1.84h3.65v-3.65l-1.81-1.87h-12.87l-1.81 1.87v7.88l1.81 1.31h11.03v3.65h-9.17v-1.81h-3.67v3.68l1.81 1.81zm8.12 0v-7.33h9.16V240h3.65v-18.39h-3.65v7.38h-9.16v-7.38h-3.68V240zm19.12 0v-18.39h-3.68V240zm19.12 0v-18.39h-3.65v12.24l-9.17-12.24h-3.67V240h3.67v-12.27l9.17 12.27zm18.23 0v-3.68h-11.93v-3.65h11.01v-3.68h-11.01v-3.7h11.93v-3.68h-15.6V240z"
transform="translate(61.611 -200.905)"
/>
<path
fill="#fff"
d="M269.483 90.49c-.344.178-.678.381-1.018.584l-.344.203-.281.153-.063.051-.305.179-.039.025a33.96 33.96 0 00-1.643 1.095l-.14.077-.18.152-.315.229-.204.128-.115.102-.214.177-.092.052-.253.204-.053.051-.28.229h-.024l-.306.255-.291.254-.039.024-.828.739-.126.102-.154.152-.151.152-.126.127-.179.152-.103.102-.203.203-.077.078-.218.229-.049.052-.242.254h-.024l-.257.279-.011.025-.256.255-.038.051-.215.228-.063.078-.193.229-.077.102-.165.179-.112.126-.141.152-.13.18-.102.126-.165.179-.073.127-.039.051-.203.23-.193.254-.038.051-.215.279-.014.025-.229.307v.023l-.217.281-.039.051-.176.254-.053.078-.164.229-.077.127-.127.204-.102.126-.116.18-.102.177-.088.128-.14.229-.063.102-.154.254-.049.078-.165.279-.025.025-.179.33h-.014l-.179.332-.01.024-.179.306-.024.051-.141.28-.052.075-.126.256-.063.127-.116.203-.074.153-.091.179-.087.203-.063.127-.116.254-.049.102-.13.256-.025.076-.14.306-.011.051-.154.33-.141.356-.024.025-.116.307-.039.074-.102.281-.039.102-.102.255-.049.126-.077.23-.063.152-.063.179-.077.229-.049.128-.077.254-.039.127-.088.254-.028.102-.102.307-.011.051-.102.355-.116.383-.102.355-.01.051-.077.307-.025.074-.077.307-.024.102-.053.256-.039.152-.049.229-.039.152-.039.203-.053.204-.035.179-.039.229-.028.152-.049.254-.024.103-.053.306-.014.076-.049.33v.051l-.063.357v.025l-.053.356v.024l-.049.356v.051l-.039.331-.014.078-.039.305v.102l-.024.279-.011.129-.028.254-.011.178-.028.406-.011.18-.014.229v.152l-.01.254-.028.841v1.246l.014.306v.103l.014.278.01.128.014.254v.153l.011.228.014.204.014.179.025.229c.049.688.126 1.375.228 2.063l.053.382.01.051.053.33.011.077c.091.533.207 1.094.319 1.652l.039.18.052.229.126.51.077.306.025.075.077.332.01.051.102.356v.024l.116.383.112.355.014.051.102.33.024.078.102.278.039.128.091.255.049.126.078.254.063.153.077.204.074.203.067.179.01.026.014.051.01.051.014.025a36.172 36.172 0 002.088 4.377l43.236 74.873a59.233 59.233 0 019.848-13.031c6.949-6.947 15.614-12.164 25.301-14.938l.063-.026.446-.126 2.06-.536.281-.051.242-.051 1.576-.33.318-.076.204-.025.509-.102h.014l.533-.102.18-.026.354-.051.368-.075.165-.026.522-.075h.039l.509-.078.218-.023.316-.027.42-.051.117-.024.543-.051h.066l.471-.051.268-.026.28-.025.456-.051h.092l.543-.025.116-.025.432-.025h.306l.242-.025.509-.025h.038l.548-.025H351.611l.165.025h.522l.103.025h.469l.151.025h.318l.154.025h.166l.305.025h.15l.166.025c2.635.178 5.242.561 7.787 1.094l-46.343-80.268c-4.759-8.219-12.455-13.768-21.019-16.058-3.833-1.044-7.826-1.4-11.823-1.095h-.05l-.028.025h-.073l-.474.025-.112.026h-.154l-.074.024-.586.051-.115.026h-.05l-.765.126H280.285l-.112.027-.115.023-.699.102-.115.027-.112.024h-.028l-.088.026-.115.024-.471.102-.112.026-.231.051-.112.025-.102.025h-.015l-.115.025-1.043.254-.049.026h-.066l-.112.051-.229.051-.115.024-.116.051-.112.027-.066.023h-.05l-.344.103-.014.026-.088.024-.116.026-.112.051-.091.024h-.024l-.102.026-.112.051-.116.025-.053.025-.049.025-.116.025-.102.051-.112.025h-.014l-.088.051-.116.025-.115.052-.088.024h-.015l-.112.053-.115.051-.102.024-.05.026-.168.051-.112.051-.33.127-.102.051-.103.026-.014.024-.102.026-.649.278-.024.027-.077.023-.116.052-.102.051-.33.152-.102.052-.063.025-.053.025-.315.152h-.014l-.088.051-.306.128-.014.024-.534.255-.102.077-.102.051h-.014zm51.345 121.52c7.481-7.482 17.813-12.113 29.227-12.113s21.744 4.631 29.227 12.113 12.115 17.814 12.115 29.242c0 11.402-4.633 21.734-12.115 29.216-7.482 7.482-17.813 12.113-29.227 12.113-11.325 0-21.58-4.556-29.052-11.937l-.189-.177c-7.482-7.481-12.101-17.813-12.101-29.216 0-11.427 4.633-21.759 12.115-29.241zm29.227-5.854a35.036 35.036 0 00-24.826 10.256c-6.338 6.363-10.27 15.145-10.27 24.84 0 9.67 3.932 18.451 10.283 24.787l.151.179c6.338 6.235 15.042 10.104 24.661 10.104a34.9 34.9 0 0024.802-10.283 34.936 34.936 0 0010.279-24.787c0-9.695-3.931-18.477-10.269-24.84a35.027 35.027 0 00-24.811-10.256zm-82.33-103.044a24.46 24.46 0 0117.334-7.177c6.767 0 12.9 2.75 17.33 7.177a24.46 24.46 0 017.188 17.331c0 6.77-2.748 12.903-7.188 17.356a24.448 24.448 0 01-17.33 7.177 24.453 24.453 0 01-17.334-7.177c-4.439-4.453-7.188-10.587-7.188-17.356a24.455 24.455 0 017.188-17.331zm17.334-.916c-5.04 0-9.609 2.035-12.919 5.345-3.295 3.308-5.341 7.863-5.341 12.902a18.23 18.23 0 005.331 12.928c3.319 3.283 7.889 5.345 12.929 5.345 5.036 0 9.605-2.062 12.915-5.345a18.288 18.288 0 005.345-12.928c0-5.039-2.05-9.595-5.345-12.902a18.205 18.205 0 00-12.915-5.345zM164.936 40.125a20.472 20.472 0 0114.48-5.98 20.47 20.47 0 0114.48 5.98c3.692 3.717 5.994 8.832 5.994 14.48 0 5.65-2.302 10.792-5.994 14.482a20.384 20.384 0 01-14.48 6.004 20.384 20.384 0 01-14.48-6.004 20.407 20.407 0 01-5.994-14.482c-.001-5.648 2.291-10.763 5.994-14.48zm14.48.255a14.194 14.194 0 00-10.051 4.175 14.196 14.196 0 00-4.172 10.051c0 3.92 1.604 7.482 4.172 10.053a14.2 14.2 0 0010.051 4.175c3.92 0 7.482-1.604 10.055-4.175a14.202 14.202 0 004.173-10.053c0-3.918-1.604-7.482-4.173-10.051a14.2 14.2 0 00-10.055-4.175zm154.797 402.966V297.521h-15.231v145.824h15.231zm31.683-145.825v145.824h15.231V297.521h-15.231zm-25.437 0v145.824h19.177V297.521h-19.177zm-7.1-72.964c4.275-4.274 10.182-6.922 16.695-6.922 6.503 0 12.406 2.647 16.681 6.922 4.278 4.276 6.925 10.18 6.925 16.695 0 6.49-2.646 12.393-6.91 16.67-4.289 4.273-10.192 6.922-16.695 6.922a23.573 23.573 0 01-16.681-6.898c-4.288-4.301-6.935-10.203-6.935-16.693 0-6.517 2.647-12.42 6.92-16.696zm16.696-.662a17.343 17.343 0 00-12.279 5.064 17.337 17.337 0 00-5.078 12.293c0 4.785 1.937 9.109 5.066 12.267a17.389 17.389 0 0012.291 5.064c4.783 0 9.125-1.934 12.266-5.064 3.145-3.157 5.078-7.481 5.078-12.267 0-4.811-1.934-9.136-5.064-12.293a17.386 17.386 0 00-12.28-5.064zm-73.69-112.13a12.246 12.246 0 018.693-3.612c3.383 0 6.45 1.373 8.676 3.612 2.238 2.241 3.614 5.319 3.614 8.679 0 3.385-1.376 6.465-3.601 8.704-2.239 2.214-5.307 3.612-8.689 3.612-3.387 0-6.454-1.398-8.693-3.612-2.225-2.239-3.614-5.319-3.614-8.704 0-3.36 1.39-6.438 3.614-8.679zm8.694 2.647c-1.667 0-3.184.662-4.278 1.756s-1.769 2.621-1.769 4.275c0 1.68.674 3.182 1.758 4.275 1.105 1.095 2.622 1.782 4.289 1.782s3.18-.688 4.274-1.757a6.108 6.108 0 001.769-4.301 6.084 6.084 0 00-1.758-4.275 6.067 6.067 0 00-4.285-1.755zM173.13 48.32c1.604-1.578 3.832-2.596 6.285-2.596 2.443 0 4.686 1.018 6.286 2.596 1.604 1.628 2.597 3.843 2.597 6.285a8.843 8.843 0 01-2.597 6.287 8.885 8.885 0 01-6.286 2.596 8.89 8.89 0 01-6.285-2.596 8.886 8.886 0 01-2.594-6.287 8.932 8.932 0 012.594-6.285zm6.286 3.666c-.723 0-1.386.305-1.856.763a2.67 2.67 0 00-.765 1.856c0 .738.295 1.4.765 1.858.47.484 1.134.763 1.856.763.727 0 1.39-.278 1.86-.763.47-.458.761-1.12.761-1.858 0-.713-.291-1.374-.761-1.856-.484-.458-1.148-.763-1.86-.763zm21.211 162.595v-13.31h-68.824v13.31h68.824zm-11.96-27.128H143.763v7.557h44.904v-7.557zm-7.556-6.262V94.815l-20.31-12.724-.179-.102-.165-.128h-.025l-.154-.103-.179-.126h-.025l-.151-.102-.168-.128-.035-.025-.13-.076-.175-.127-.053-.026-.116-.075-.165-.128-.049-.052-.126-.074-.168-.129-.063-.024-.102-.077-.151-.127-.077-.052-.102-.075-.154-.129-.089-.05-.077-.075-.165-.128-.088-.051-.063-.051-.165-.127-.102-.102-.066-.051-.151-.129-.116-.074-.039-.051-.151-.129-.126-.102-.028-.024-.151-.128-.141-.102-.024-.025-.14-.152-.155-.102v-.027l-.151-.125-.154-.129-.151-.152-.154-.127-.141-.127-.137-.153-.028-.024-.126-.102-.151-.152-.028-.027-.112-.102-.14-.152-.039-.025-.102-.102-.14-.152-.049-.051-.091-.102-.14-.129-.049-.074-.091-.078-.14-.152-.063-.051-.063-.077-.141-.153-.063-.075-.077-.077-.126-.152-.077-.076-.049-.051-.126-.152-.102-.102-.039-.051-.14-.152-.088-.129-.039-.024-.13-.152-.102-.128-.011-.025-.14-.152-.102-.128-.014-.024-.126-.152-.116-.153-.126-.152-.126-.153v-.025l-.116-.127-.112-.152v107.752h29.787zm7.875 47.948c1.73 0 3.13 1.398 3.13 3.104a3.13 3.13 0 01-3.13 3.131H117.56v8.093h97.308v-22.624H117.56v8.297h71.426zM427.499 464.8a3.125 3.125 0 013.127 3.13 3.125 3.125 0 01-3.127 3.129H181.708a3.127 3.127 0 01-3.13-3.129c0-1.731 1.4-3.13 3.13-3.13h245.791zm-143.932 14.964c1.729 0 3.13 1.398 3.13 3.104a3.13 3.13 0 01-3.13 3.131H113.479c-1.719 0-3.13-1.4-3.13-3.131 0-1.706 1.411-3.104 3.13-3.104h170.088zm-187.499 0c1.734 0 3.131 1.398 3.131 3.104a3.127 3.127 0 01-3.131 3.131h-21.26c-1.72 0-3.12-1.4-3.12-3.131 0-1.706 1.4-3.104 3.12-3.104h21.26zm341.114-.459c1.73 0 3.13 1.399 3.13 3.13a3.144 3.144 0 01-3.13 3.131h-80.6c-1.716 0-3.131-1.425-3.131-3.131 0-1.73 1.415-3.13 3.131-3.13h80.6zM114.43 244.84c1.72 0 3.13 1.4 3.13 3.131a3.136 3.136 0 01-3.13 3.13h-3.13v4.301h3.13c1.72 0 3.13 1.425 3.13 3.131a3.136 3.136 0 01-3.13 3.13h-3.13v4.326h3.13c1.72 0 3.13 1.4 3.13 3.131a3.136 3.136 0 01-3.13 3.13h-3.13v4.301h3.13c1.72 0 3.13 1.4 3.13 3.13a3.136 3.136 0 01-3.13 3.131h-3.13v4.326h3.13c1.72 0 3.13 1.4 3.13 3.13 0 1.706-1.411 3.131-3.13 3.131h-3.13v4.301h3.13c1.72 0 3.13 1.4 3.13 3.13a3.136 3.136 0 01-3.13 3.131h-3.13v4.326h3.13c1.72 0 3.13 1.399 3.13 3.13 0 1.706-1.411 3.106-3.13 3.106h-3.13v20.205h-3.854L88.79 298.359v-53.748l12.038-23.77H111.3V244.839h3.13zm106.699 69.681h-3.13c-1.73 0-3.13-1.4-3.13-3.106 0-1.73 1.4-3.13 3.13-3.13h3.13v-4.326h-3.13c-1.73 0-3.13-1.4-3.13-3.131 0-1.729 1.4-3.13 3.13-3.13h3.13v-4.301h-3.13a3.145 3.145 0 01-3.13-3.131c0-1.729 1.4-3.13 3.13-3.13h3.13v-4.326h-3.13c-1.73 0-3.13-1.4-3.13-3.131 0-1.729 1.4-3.13 3.13-3.13h3.13v-4.301h-3.13c-1.73 0-3.13-1.4-3.13-3.13a3.13 3.13 0 013.13-3.131h3.13v-4.326h-3.13c-1.73 0-3.13-1.4-3.13-3.13 0-1.706 1.4-3.131 3.13-3.131h3.13v-4.301h-3.13c-1.73 0-3.13-1.4-3.13-3.13a3.13 3.13 0 013.13-3.131h3.13V220.84h10.473l12.023 23.77v53.748l-18.653 36.367h-3.843v-20.204zm128.926-125.542l-.495.025h-.993l-.498.025h-.024l-.456.025h-.218l-.281.026-.382.024h-.102l-.496.026h-.063l-.422.051-.242.024h-.241l-.418.051h-.063l-.484.051-.102.027-.383.051-.266.023-.219.027-.432.075h-.038l-.484.051-.126.026-.344.051-.306.051-.636.127h-.014l-.471.076-.164.025-.306.076-.33.052-.14.024c-.587.128-1.173.281-1.756.408l-.102.025c-9.381 2.316-17.765 7.201-24.408 13.845-9.466 9.467-15.344 22.522-15.344 36.901v202.094h14.912V294.391c0-1.706 1.4-3.131 3.131-3.131h68.406c1.721 0 3.131 1.425 3.131 3.131v148.955h14.912V241.252c0-11.428-3.703-22.014-9.975-30.643V29.132c0-1.706-1.4-3.13-3.13-3.13l-211.041.126h-1.004l-.154.026h-.088a25.898 25.898 0 00-6.223.94c-6.44 1.757-12.318 5.905-16.07 11.911l-.523.865-.053.077c-3.601 6.337-4.274 13.462-2.516 19.976.432 1.604.99 3.131 1.677 4.633h.014l.382.814.049.077.039.075c.228.458.484.942.765 1.374v.026l.509.839.049.077.102.127.024.076.063.076.102.154.028.051.175.254.014.025.077.128.102.126.112.152.091.129.011.024.102.128.091.127.011.025.116.127.063.102.039.051.102.152.063.078.039.051.116.126.063.077.267.356.116.126.039.051.074.078.116.152.024.024.077.102.242.255.112.152h.014l.116.128.102.126h.011l.116.129.102.126h.025l.116.128.102.102.025.025.116.127.102.103.025.026.126.126.383.383.126.126.063.051.066.078.137.126.039.026.091.075.14.128.025.025.102.102.126.128h.024l.116.102.141.126.126.129.141.102.14.126.126.103.154.127.102.076.039.026.137.102.102.102.039.024.14.102.102.078.052.051.141.102.074.051.063.051.155.102.063.051.077.076.141.102.063.026.088.075.154.102.049.027.102.074.154.103.024.026.126.075.154.104.025.024.126.078.154.102.151.102.154.102 21.517 13.463c.189.102.393.228.562.355l59.321 37.155-.053-.306-.049-.33-.014-.076-.025-.255-.039-.255-.01-.075-.039-.306-.014-.102-.024-.229-.039-.255v-.075l-.039-.308-.014-.125-.011-.204-.024-.28v-.051l-.091-1.297-.01-.129-.014-.178-.014-.66-.011-.153v-.179l-.014-.306c0-.763 0-1.526.039-2.265l.014-.204v-.126l.024-.332v-.051l.01-.255.053-.661v-.051l.126-1.222.024-.255.014-.076c.063-.51.141-1.043.218-1.578l.049-.279v-.051l.179-.941.063-.307.025-.152.039-.179.063-.306.077-.305c.116-.533.242-1.068.383-1.603l.126-.458.039-.128.088-.306.014-.051.179-.56.088-.306.014-.051.087-.254.063-.23.039-.075.102-.306.025-.076.231-.636.102-.28.049-.153.116-.306.039-.102.141-.355.024-.051.165-.381v-.027l.179-.406.011-.025.168-.382.024-.077.151-.33.053-.102.126-.306.077-.153.112-.229.091-.204.102-.204.126-.228.077-.179.141-.279.049-.102.179-.332.039-.051.189-.381.014-.026.218-.381h.01l.204-.382.039-.051.179-.332.063-.102.165-.279.087-.152.155-.23.102-.178.126-.203.14-.203.102-.152.165-.255.077-.128.204-.306.052-.075.229-.332.024-.024.256-.356.252-.383.039-.023.228-.332.063-.078.305-.38.179-.255.126-.152.155-.18.151-.203.13-.152.189-.229.087-.128.232-.255.063-.074.253-.307 1.007-1.094.252-.279.091-.104.228-.204.126-.152.357-.356.151-.152.203-.178.127-.128.242-.228.091-.078.28-.278.724-.638.024-.023 1.172-.967.218-.204.176-.128.192-.152.215-.153.14-.128c.499-.356.993-.737 1.502-1.094h.015l1.299-.84.267-.178.179-.102.442-.281.179-.102.267-.152.141-.075v-.026l.115-.051.127-.076.126-.076.092-.052h.038l.369-.228.049-.027.077-.023.393-.23.103-.051.13-.051.228-.127h.015l.126-.076.368-.18.141-.075.242-.128h.039a37.99 37.99 0 015.239-2.086l.13-.025.354-.128.228-.051c-26.082-16.339-52.551-33.72-78.967-49.524l190.959-.127v171.197c-7.875-7.506-18.081-12.598-29.382-14.049h-.038l-1.271-.152h-.102l-.141-.024-.281-.026h-.14l-.141-.024h-.14l-.141-.026h-.137l-.103-.024H353.724l-.141-.026h-.204l-.077-.024H352.883l-.14-.026h-.281l-.154-.025h-.549l-.14-.025h-.995l-.151-.025H350.055zM172.063 322.767a35.256 35.256 0 0115.396 6.388l10.002-10.002 7.837 7.838-10.002 10.002a35.465 35.465 0 016.387 15.422h14.14v11.071h-14.14a35.479 35.479 0 01-6.387 15.423l10.002 10-7.837 7.838-10.002-10a35.28 35.28 0 01-15.396 6.388v14.124h-2.724v26.238a3.13 3.13 0 11-6.26 0v-26.238h-2.113v-14.124a35.325 35.325 0 01-15.396-6.388l-10.002 10-7.84-7.838 10.002-10a35.51 35.51 0 01-6.387-15.423h-14.137v-11.071h14.137a35.506 35.506 0 016.387-15.422l-10.002-10.002 7.84-7.838 10.002 10.002a35.246 35.246 0 0115.396-6.388v-14.124h11.097v14.124zm-8.984 36.876a3.136 3.136 0 013.13-3.131c1.73 0 3.13 1.4 3.13 3.131v15.905c8.511-1.348 15.014-8.704 15.014-17.61 0-9.85-7.991-17.814-17.839-17.814-9.851 0-17.842 7.965-17.842 17.814 0 8.703 6.212 15.906 14.407 17.508v-15.803z"
transform="matrix(.13 0 0 .13 -9.32 -3.38)"
/>
</svg>
